<svg xmlns="http://www.w3.org/2000/svg" viewBox="0 0 40 40">
  <circle cx="20" cy="20" r="20" fill="#99040B"/>
  <path d="M 10 16 L 8 30 C 8 31 9 32 10 32 L 30 32 C 31 32 32 31 32 30 L 30 16 Z" fill="white" stroke="white" stroke-width="0.5"/>
  <path d="M 12 14 C 12 10 14.5 8 20 8 C 25.5 8 28 10 28 14" fill="none" stroke="white" stroke-width="3" stroke-linecap="round"/>
  <circle cx="15.5" cy="22" r="1.6" fill="#780006"/>
  <circle cx="24.5" cy="22" r="1.6" fill="#780006"/>
  <path d="M 14.5 25.5 Q 20 28.5 25.5 25.5" fill="none" stroke="#780006" stroke-width="2" stroke-linecap="round"/>
  <path d="M 10 28 L 8 30 C 8 31 9 32 10 32 L 30 32 C 31 32 32 31 32 30 L 30 28 Z" fill="white"/>
</svg>
